<svg width="24" height="24" viewBox="0 0 24 24" fill="none" xmlns="http://www.w3.org/2000/svg">
<g opacity="0.9">
<path d="M7.19448 18.9793L15.7676 20.4935C17.4023 20.7798 18.4043 19.8607 18.4043 18.0903V8.80905C18.4043 7.95024 18.1858 7.37769 17.7338 6.97842V5.58472C17.7338 3.89722 16.5887 3.07608 14.6903 3.41508L6.96094 4.77864C6.11719 4.88411 5.58984 5.52446 5.58984 6.49628V17.126C5.58984 18.1581 6.13979 18.7909 7.19448 18.9793ZM15.9559 6.27027L11.127 5.41899L15.1574 4.74097C15.8655 4.62044 16.3025 4.91424 16.3025 5.52446V6.33807C16.1895 6.30794 16.0765 6.28534 15.9559 6.27027ZM7.62388 17.5178C7.26981 17.45 7.09654 17.2315 7.09654 16.8699V6.84282C7.09654 6.45861 7.35268 6.26274 7.77455 6.33054L15.8504 7.75437C16.536 7.8749 16.8976 8.16118 16.8976 8.78645V17.9396C16.8976 18.7005 16.4531 19.0772 15.7374 18.9491L7.62388 17.5178ZM8.94224 9.66787L14.5622 10.6623C14.9389 10.7301 15.195 10.489 15.195 10.1349C15.195 9.82608 15.0368 9.6528 14.743 9.60007L9.15318 8.61318C8.77651 8.55292 8.5053 8.77892 8.5053 9.12546C8.5053 9.41173 8.6635 9.62267 8.94224 9.66787ZM8.94224 12.5833L14.5622 13.5777C14.9389 13.638 15.195 13.3969 15.195 13.0504C15.195 12.734 15.0368 12.5607 14.743 12.508L9.15318 11.5286C8.77651 11.4608 8.5053 11.6944 8.5053 12.0334C8.5053 12.3272 8.6635 12.5306 8.94224 12.5833Z" fill="black" fill-opacity="0.75"/>
</g>
</svg>
