<svg width="24" height="24" viewBox="0 0 24 24" fill="none" xmlns="http://www.w3.org/2000/svg">
<g opacity="0.9">
<path d="M8 6.46154C8 6.07919 8.30996 5.76923 8.69231 5.76923H11.4615C11.8439 5.76923 12.1538 6.07919 12.1538 6.46154C12.1538 6.84389 11.8439 7.15385 11.4615 7.15385H8.69231C8.30996 7.15385 8 6.84389 8 6.46154Z" fill="black" fill-opacity="0.75"/>
<path d="M8 9.23077C8 8.84842 8.30996 8.53846 8.69231 8.53846H10.7692C11.1516 8.53846 11.4615 8.84842 11.4615 9.23077C11.4615 9.61312 11.1516 9.92308 10.7692 9.92308H8.69231C8.30996 9.92308 8 9.61312 8 9.23077Z" fill="black" fill-opacity="0.75"/>
<path d="M8 12C8 11.6176 8.30996 11.3077 8.69231 11.3077H12.1538C12.5362 11.3077 12.8462 11.6176 12.8462 12C12.8462 12.3824 12.5362 12.6923 12.1538 12.6923H8.69231C8.30996 12.6923 8 12.3824 8 12Z" fill="black" fill-opacity="0.75"/>
<path d="M8 14.7692C8 14.3869 8.30996 14.0769 8.69231 14.0769H10.7692C11.1516 14.0769 11.4615 14.3869 11.4615 14.7692C11.4615 15.1516 11.1516 15.4615 10.7692 15.4615H8.69231C8.30996 15.4615 8 15.1516 8 14.7692Z" fill="black" fill-opacity="0.75"/>
<path d="M8 17.5385C8 17.1561 8.30996 16.8462 8.69231 16.8462H11.4615C11.8439 16.8462 12.1538 17.1561 12.1538 17.5385C12.1538 17.9208 11.8439 18.2308 11.4615 18.2308H8.69231C8.30996 18.2308 8 17.9208 8 17.5385Z" fill="black" fill-opacity="0.75"/>
<path fill-rule="evenodd" clip-rule="evenodd" d="M9.24615 4.24615V19.7538H15.0615V4.24615H9.24615ZM8.69231 3C8.30996 3 8 3.30996 8 3.69231V20.3077C8 20.69 8.30996 21 8.69231 21H15.6154C15.9977 21 16.3077 20.69 16.3077 20.3077V3.69231C16.3077 3.30996 15.9977 3 15.6154 3H8.69231Z" fill="black" fill-opacity="0.75"/>
</g>
</svg>
