<svg width="21" height="21" viewBox="0 0 21 21" fill="none" xmlns="http://www.w3.org/2000/svg">
<g opacity="0.9">
<path d="M10.4988 10.5833C10.657 10.5833 10.802 10.5305 10.9536 10.3789L13.0959 8.31567C13.2014 8.21021 13.2607 8.09155 13.2607 7.93335C13.2607 7.63672 13.0234 7.41919 12.7334 7.41919C12.5818 7.41919 12.4368 7.47852 12.3313 7.59717L11.448 8.5332L11.0525 9.00781L11.1184 8.01904V3.0752C11.1184 2.7522 10.8416 2.46875 10.4988 2.46875C10.1626 2.46875 9.88574 2.7522 9.88574 3.0752V8.01904L9.95166 9.0144L9.54956 8.5332L8.67285 7.59717C8.56738 7.47852 8.41577 7.41919 8.26416 7.41919C7.97412 7.41919 7.73682 7.63672 7.73682 7.93335C7.73682 8.09155 7.79614 8.21021 7.9082 8.31567L10.0505 10.3789C10.2021 10.5305 10.3472 10.5833 10.4988 10.5833ZM4.8562 17.241H16.1348C17.5652 17.241 18.3101 16.5027 18.3101 15.092V11.2227C18.3101 10.5239 18.2244 10.1482 17.908 9.7395L15.7327 6.94458C14.9417 5.92285 14.4407 5.4021 13.2344 5.4021H12.3379V6.48315H13.2937C13.7551 6.48315 14.21 6.86548 14.5132 7.25439L16.7676 10.2207C16.9917 10.5173 16.906 10.6426 16.5698 10.6426H12.4368C12.094 10.6426 11.9358 10.8865 11.9358 11.1436V11.1699C11.9358 11.8818 11.3821 12.6399 10.4988 12.6399C9.60889 12.6399 9.05518 11.8818 9.05518 11.1699V11.1436C9.05518 10.8865 8.90356 10.6426 8.5542 10.6426H4.42773C4.08496 10.6426 4.01245 10.4976 4.22998 10.2207L6.48438 7.25439C6.7876 6.86548 7.24243 6.48315 7.70386 6.48315H8.65967V5.4021H7.76318C6.55689 5.4021 6.05591 5.91626 5.26489 6.94458L3.08301 9.7395C2.77319 10.1548 2.6875 10.5239 2.6875 11.2227V15.092C2.6875 16.5027 3.43237 17.241 4.8562 17.241ZM4.92212 15.9226C4.31567 15.9226 3.98608 15.6062 3.98608 14.9734V11.8027H7.93457C8.14551 12.9761 9.16724 13.8462 10.4988 13.8462C11.8303 13.8462 12.8521 12.9761 13.063 11.8027H17.0115V14.9734C17.0115 15.6062 16.6753 15.9226 16.0688 15.9226H4.92212Z" fill="black" fill-opacity="0.75"/>
</g>
</svg>
